<svg width="16" height="20" viewBox="0 0 16 20" fill="none" xmlns="http://www.w3.org/2000/svg">
<path d="M7.87933 9.25968C9.1485 9.25968 10.2475 8.80449 11.1454 7.90639C12.0434 7.00844 12.4986 5.90974 12.4986 4.64044C12.4986 3.37157 12.0434 2.27273 11.1453 1.37448C10.2472 0.476678 9.14835 0.0214844 7.87933 0.0214844C6.61002 0.0214844 5.51132 0.476678 4.61337 1.37463C3.71541 2.27258 3.26007 3.37143 3.26007 4.64044C3.26007 5.90974 3.71541 7.00859 4.61351 7.90654C5.51161 8.80434 6.61046 9.25968 7.87933 9.25968Z" fill="white"/>
<path d="M15.9617 14.7688C15.9358 14.3951 15.8834 13.9875 15.8063 13.557C15.7285 13.1233 15.6282 12.7133 15.5083 12.3386C15.3843 11.9513 15.2158 11.5688 15.0074 11.2023C14.7912 10.8219 14.5371 10.4906 14.2521 10.218C13.9541 9.93285 13.5892 9.70357 13.1672 9.53633C12.7467 9.36997 12.2806 9.28569 11.7821 9.28569C11.5863 9.28569 11.397 9.36602 11.0314 9.60407C10.8063 9.75083 10.5431 9.92056 10.2493 10.1083C9.99807 10.2684 9.65773 10.4183 9.23736 10.5541C8.82723 10.6868 8.41081 10.7541 7.9998 10.7541C7.58879 10.7541 7.17252 10.6868 6.76195 10.5541C6.34201 10.4185 6.00168 10.2685 5.75074 10.1084C5.45972 9.92246 5.19634 9.75273 4.96794 9.60393C4.60273 9.36587 4.41325 9.28554 4.21747 9.28554C3.71882 9.28554 3.25295 9.36997 2.83257 9.53648C2.41088 9.70342 2.04582 9.9327 1.74748 10.2182C1.4626 10.4909 1.20844 10.822 0.992476 11.2023C0.784265 11.5688 0.615707 11.9512 0.491629 12.3388C0.371794 12.7135 0.271566 13.1233 0.193725 13.557C0.116616 13.9869 0.0642337 14.3947 0.0383354 14.7692C0.012876 15.1362 0 15.5171 0 15.9017C0 16.9028 0.318242 17.7133 0.945801 18.311C1.5656 18.9008 2.38572 19.2 3.38302 19.2H12.6175C13.6148 19.2 14.4346 18.9009 15.0545 18.311C15.6822 17.7137 16.0005 16.9031 16.0005 15.9016C16.0003 15.5152 15.9873 15.134 15.9617 14.7688Z" fill="white"/>
</svg>
