<svg width="20" height="20" viewBox="0 0 20 20" fill="none" xmlns="http://www.w3.org/2000/svg">
<g clip-path="url(#clip0_1:120)">
<path d="M14.5833 0H1.45833C0.654167 0 0 0.654167 0 1.45833V3.06333C0 3.67583 0.238333 4.25167 0.671667 4.68417L5.52833 9.5375C5.72167 9.73083 5.83333 10 5.83333 10.2742V16.875C5.83333 17.1192 5.975 17.3408 6.1975 17.4425C6.28083 17.4817 6.37 17.5 6.45833 17.5C6.605 17.5 6.75 17.4483 6.865 17.3492L9.19917 15.3483C9.70833 14.9133 10 14.2783 10 13.6083V10.2917C10 10.0108 10.1158 9.73667 10.3183 9.54167L15.3408 4.69583C15.7858 4.26667 16.0408 3.665 16.0408 3.04667V1.45833C16.0417 0.654167 15.3875 0 14.5833 0Z" fill="white"/>
<path d="M18.875 10H13.4583C12.6542 10 12 10.6542 12 11.4583V18.5417C12 19.3458 12.6542 20 13.4583 20H18.875C19.6792 20 20.3333 19.3458 20.3333 18.5417V11.4583C20.3333 10.6542 19.6792 10 18.875 10ZM17.2083 17.0833H15.125C14.78 17.0833 14.5 16.8033 14.5 16.4583C14.5 16.1133 14.78 15.8333 15.125 15.8333H17.2083C17.5533 15.8333 17.8333 16.1133 17.8333 16.4583C17.8333 16.8033 17.5533 17.0833 17.2083 17.0833ZM17.2083 14.5833H15.125C14.78 14.5833 14.5 14.3033 14.5 13.9583C14.5 13.6133 14.78 13.3333 15.125 13.3333H17.2083C17.5533 13.3333 17.8333 13.6133 17.8333 13.9583C17.8333 14.3033 17.5533 14.5833 17.2083 14.5833Z" fill="white"/>
</g>
<defs>
<clipPath id="clip0_1:120">
<rect width="20" height="20" fill="white"/>
</clipPath>
</defs>
</svg>
