<svg width="21" height="21" viewBox="0 0 21 21" fill="none" xmlns="http://www.w3.org/2000/svg">
<path fill-rule="evenodd" clip-rule="evenodd" d="M12.4256 0.956496C11.4586 -0.318833 9.54138 -0.318831 8.57436 0.956498L8.11741 1.55913C7.58977 2.255 6.72775 2.61206 5.8626 2.49311L5.11336 2.39009C3.52778 2.17208 2.17208 3.52778 2.39009 5.11336L2.49311 5.8626C2.61206 6.72775 2.255 7.58977 1.55913 8.11741L0.956497 8.57436C-0.318832 9.54138 -0.318833 11.4586 0.956497 12.4256L1.55913 12.8826C2.255 13.4102 2.61206 14.2723 2.49311 15.1374L2.39009 15.8866C2.17208 17.4722 3.52778 18.8279 5.11336 18.6099L5.8626 18.5069C6.72775 18.3879 7.58977 18.745 8.11741 19.4409L8.57436 20.0435C9.54138 21.3188 11.4586 21.3188 12.4256 20.0435L12.8826 19.4409C13.4102 18.745 14.2723 18.3879 15.1374 18.5069L15.8866 18.6099C17.4722 18.8279 18.8279 17.4722 18.6099 15.8866L18.5069 15.1374C18.3879 14.2723 18.745 13.4102 19.4409 12.8826L20.0435 12.4256C21.3188 11.4586 21.3188 9.54138 20.0435 8.57436L19.4409 8.11741C18.745 7.58977 18.3879 6.72775 18.5069 5.8626L18.6099 5.11336C18.8279 3.52778 17.4722 2.17208 15.8866 2.39009L15.1374 2.49311C14.2723 2.61206 13.4102 2.255 12.8826 1.55913L12.4256 0.956496ZM15.5228 8.5764C15.9101 8.21883 15.9343 7.61493 15.5767 7.22755C15.2191 6.84018 14.6152 6.81602 14.2279 7.1736L9.18781 11.826L6.77276 9.59667C6.38539 9.2391 5.78148 9.26325 5.42391 9.65063C5.06633 10.038 5.09049 10.6419 5.47786 10.9995L7.89291 13.2288C8.62421 13.9038 9.75141 13.9038 10.4827 13.2288L15.5228 8.5764Z" fill="white"/>
</svg>
